<svg version="1.2" xmlns="http://www.w3.org/2000/svg" viewBox="0 0 1280 720" width="1280" height="720">
	<title>Novo Projeto</title>
	<style>
		.s0 { fill: #ffffff } 
		.s1 { fill: #ff0000 } 
	</style>
	<g id="Background">
		<path id="Path 0" class="s0" d="m0 720v-720h1280v720z"/>
		<path id="Path 1" class="s1" d="m635 593l-197-11-106-47-32-42 8-58 32-22-41-32 6-58 27-22 76-14-60-36-1-55 35-18 192 1v14l-191-1-23 12-1 37 22 19 67 22 69 6 4 12h-98l-100 24-11 38 15 26 37 15 54-8 5 14-95 27-13 61 45 37 107 40 236 5 65-17 4-20-94-100 225-75-68-37-2-30 122-43-123-97-141-61-94-26-78 14-39 63 4-31 30-46 31-13 74-1h41l47 2-2 14h-48l197 80 115 95-13 25-109 30 2 17 66 32 6 22-226 72 72 64 21 40-21 29-92 12z"/>
	</g>
</svg>