<svg version="1.2" xmlns="http://www.w3.org/2000/svg" viewBox="0 0 200 200" width="200" height="200">
	<title>sigla</title>
	<style>
		.s0 { fill: #ff0000 } 
		.s1 { fill: #ffffff } 
	</style>
	<g id="Background">
		<path id="Path 1" class="s0" d="m44 39.2c3-0.1 7.3 0.4 9.4 1.1 2.8 0.8 5.7 3.2 10 8 3.4 3.8 6.7 8.3 7.5 10 0.7 1.8 1.6 7.9 1.9 13.7 0.4 9.4 0.2 11.1-1.9 16.5-1.3 3.3-3.5 7.5-4.9 9.2-1.4 1.8-5.2 4.6-8.5 6.2-3.7 1.9-8.8 3.4-13.5 4-4.1 0.6-9.9 1.1-18 1.1v12.2c-0.1 6.8-0.9 18.6-2 26.3-1.2 9.4-2.4 14.5-3.4 15.4-0.9 0.8-3.2 1.5-5.2 1.5-2.7 0.1-4.1-0.5-5.5-2.4-1.4-1.7-2-3.9-1.9-7 0.1-2.5 0.6-6.8 1.1-9.5 0.6-2.8 1.5-18.7 2-35.5 0.6-16.8 1.2-36.3 1.5-43.5 0.3-12.1 0.5-13.2 2.9-16.3 1.4-1.7 4-4.3 5.8-5.6 1.7-1.3 6.3-3.1 10.2-3.9 3.9-0.8 9.5-1.5 12.5-1.5zm122.1 5.9c1.6 0.5 3.5 1.9 4.2 3.1 0.9 1.7 1.2 11.7 1.2 40.3 0 35-0.2 39-2.3 50.5-1.7 9.6-2.7 13-4.5 14.8-1.2 1.2-3.3 2.3-4.7 2.3-1.4 0-3.5-1.1-4.7-2.3-1.2-1.3-2.4-3.4-2.8-4.8-0.3-1.4 0.1-5.4 1-9 0.8-3.6 1.9-13.1 2.3-21.3 0.7-14.3 0.6-14.7-1.3-14.7-1.1 0-6.7-0.3-12.5-0.5-5.8-0.3-15-0.7-30.5-1.5l-0.6 13.8c-0.5 10-1.4 16.4-3.3 23.7-1.5 5.6-3.5 10.8-4.6 11.9-1 1.1-3.2 2-4.8 2-1.6 0.1-3.7-0.6-4.7-1.4-1-0.8-2.1-2.4-2.5-3.5-0.5-1.2 0.1-5.6 1.7-11.5 2.2-8.5 2.6-12.5 3.4-38 0.5-15.7 1.5-32.8 2.2-38 0.7-5.2 1.9-10.5 2.5-11.8 0.7-1.2 2.2-2.5 3.5-2.8 1.2-0.3 3.4-0.3 5 0 1.7 0.4 3.2 1.6 3.9 3.3 1 2.2 1 5.2 0 13.8-0.6 6-1.2 13.8-1.2 17.3 0 3.4 0.3 6.3 0.8 6.3 0.4 0.1 10.3 0.4 43.2 1.4v-19.3c0-10.5 0.3-20 0.8-20.9 0.4-0.9 2-2.2 3.5-2.9 1.9-0.8 3.9-0.9 5.8-0.3z"/>
		<path id="Path 2" class="s1" d="m46.8 54.1c1.4-0.1 3.5 1.3 5.7 3.6 1.9 2.1 4.2 5.3 5 7 0.8 1.9 1.5 6.1 1.5 9.8 0 4.5-0.6 7.7-2 10.5-1.4 2.9-3.2 4.6-6.2 5.9-2.6 1.2-7.8 2.2-12.8 2.6-5.1 0.4-9.1 0.2-10-0.4-1.3-0.9-1.3-2-0.2-8.8 0.6-4.3 1.2-11.7 1.2-16.6 0-6.4 0.4-9.1 1.5-10.2 0.8-0.8 3.6-1.8 6.3-2.1 2.6-0.3 5.4-0.7 6.2-0.8 0.8-0.2 2.5-0.4 3.8-0.5z"/>
	</g>
</svg>